<svg width="48" height="48" viewBox="0 0 48 48" fill="none" xmlns="http://www.w3.org/2000/svg">
<g id="apple 2">
<g id="Layer 2">
<g id="Layer 1">
<path id="Vector" d="M35.0218 4H12.9782C8.01967 4 4 8.01967 4 12.9782V35.0218C4 39.9803 8.01967 44 12.9782 44H35.0218C39.9803 44 44 39.9803 44 35.0218V12.9782C44 8.01967 39.9803 4 35.0218 4Z" fill="black"/>
<g id="Group 4344">
<path id="Vector_2" fill-rule="evenodd" clip-rule="evenodd" d="M34.2803 29.2954C33.2908 31.9812 30.4459 36.487 27.6541 35.9569C25.7281 35.5858 24.88 34.5963 22.7242 35.0027C21.2046 35.2854 20.6745 35.8686 19.4553 35.9922C18.5658 35.9655 17.6993 35.7027 16.9448 35.2307C16.1903 34.7588 15.5748 34.0946 15.1616 33.3064C14.4078 32.2334 13.7682 31.0845 13.2532 29.8785C12.0204 27.1491 11.6863 24.0988 12.2991 21.1673C12.572 20.0424 13.1274 19.0058 13.9128 18.1554C14.6981 17.3051 15.6875 16.6693 16.7872 16.3081C18.8069 15.7446 20.9664 15.9852 22.8126 16.9795C23.8021 17.2622 24.5796 16.8382 25.7635 16.3964C27.1443 15.8754 28.6536 15.7998 30.0796 16.1801C31.5056 16.5603 32.7768 17.3774 33.7149 18.5168C29.6331 21.4323 29.7745 26.4505 34.4217 28.8713C34.4217 28.995 34.404 28.995 34.2803 29.2954Z" fill="white"/>
<path id="Vector_3" fill-rule="evenodd" clip-rule="evenodd" d="M28.397 10C28.4234 10.3588 28.4234 10.7191 28.397 11.0779C28.3133 12.4564 27.7279 13.7565 26.7513 14.7331C25.7748 15.7096 24.4746 16.295 23.0961 16.3788C23.0715 16.073 23.0715 15.7658 23.0961 15.46C23.241 14.1787 23.7873 12.9761 24.6569 12.024C25.5264 11.072 26.6747 10.4192 27.9376 10.159L28.397 10Z" fill="white"/>
</g>
</g>
</g>
</g>
</svg>
