<svg width="24" height="24" viewBox="0 0 24 24" fill="none" xmlns="http://www.w3.org/2000/svg">
<g id="delete (2) 1">
<path id="Vector" d="M18.1499 9.14544L17.8499 18.2257C17.8243 19.0034 17.4967 19.7405 16.9366 20.2806C16.3765 20.8206 15.628 21.1212 14.8499 21.1184H9.1499C8.37232 21.1212 7.62421 20.8211 7.06418 20.2816C6.50415 19.7422 6.17622 19.0058 6.1499 18.2287L5.8499 9.14544C5.84333 8.94653 5.91606 8.75316 6.05207 8.60787C6.18808 8.46257 6.37624 8.37726 6.57515 8.3707C6.77406 8.36413 6.96743 8.43685 7.11273 8.57286C7.25802 8.70887 7.34333 8.89703 7.3499 9.09594L7.6499 18.1784C7.66484 18.5662 7.82944 18.933 8.10914 19.202C8.38885 19.4709 8.76188 19.621 9.1499 19.6207H14.8499C15.2384 19.621 15.6119 19.4705 15.8917 19.2009C16.1714 18.9313 16.3357 18.5637 16.3499 18.1754L16.6499 9.09594C16.6565 8.89703 16.7418 8.70887 16.8871 8.57286C17.0324 8.43685 17.2257 8.36413 17.4246 8.3707C17.6236 8.37726 17.8117 8.46257 17.9477 8.60787C18.0837 8.75316 18.1565 8.94653 18.1499 9.14544ZM19.1421 6.12369C19.1421 6.32261 19.0631 6.51337 18.9225 6.65403C18.7818 6.79468 18.5911 6.87369 18.3921 6.87369H5.6084C5.40949 6.87369 5.21872 6.79468 5.07807 6.65403C4.93742 6.51337 4.8584 6.32261 4.8584 6.12369C4.8584 5.92478 4.93742 5.73402 5.07807 5.59337C5.21872 5.45271 5.40949 5.3737 5.6084 5.3737H7.9334C8.17103 5.37434 8.40041 5.28654 8.57688 5.12739C8.75336 4.96825 8.86431 4.74913 8.88815 4.5127C8.94349 3.95806 9.20334 3.44389 9.61707 3.07038C10.0308 2.69686 10.5688 2.49075 11.1261 2.4922H12.8736C13.431 2.49075 13.969 2.69686 14.3827 3.07038C14.7965 3.44389 15.0563 3.95806 15.1116 4.5127C15.1355 4.74913 15.2464 4.96825 15.4229 5.12739C15.5994 5.28654 15.8288 5.37434 16.0664 5.3737H18.3914C18.5903 5.3737 18.7811 5.45271 18.9217 5.59337C19.0624 5.73402 19.1414 5.92478 19.1414 6.12369H19.1421ZM10.1901 5.3737H13.8111C13.7126 5.1485 13.6481 4.90988 13.6199 4.66569C13.6013 4.48083 13.5148 4.30944 13.377 4.18473C13.2393 4.06002 13.0602 3.99088 12.8744 3.9907H11.1269C10.9411 3.99088 10.762 4.06002 10.6242 4.18473C10.4865 4.30944 10.4 4.48083 10.3814 4.66569C10.3529 4.90992 10.289 5.14854 10.1901 5.3737ZM10.9454 16.7369V10.3507C10.9454 10.1518 10.8664 9.96102 10.7257 9.82036C10.5851 9.67971 10.3943 9.6007 10.1954 9.6007C9.99649 9.6007 9.80572 9.67971 9.66507 9.82036C9.52442 9.96102 9.4454 10.1518 9.4454 10.3507V16.7399C9.4454 16.9389 9.52442 17.1296 9.66507 17.2703C9.80572 17.4109 9.99649 17.4899 10.1954 17.4899C10.3943 17.4899 10.5851 17.4109 10.7257 17.2703C10.8664 17.1296 10.9454 16.9389 10.9454 16.7399V16.7369ZM14.5559 16.7369V10.3507C14.5559 10.1518 14.4769 9.96102 14.3362 9.82036C14.1956 9.67971 14.0048 9.6007 13.8059 9.6007C13.607 9.6007 13.4162 9.67971 13.2756 9.82036C13.1349 9.96102 13.0559 10.1518 13.0559 10.3507V16.7399C13.0559 16.9389 13.1349 17.1296 13.2756 17.2703C13.4162 17.4109 13.607 17.4899 13.8059 17.4899C14.0048 17.4899 14.1956 17.4109 14.3362 17.2703C14.4769 17.1296 14.5559 16.9389 14.5559 16.7399V16.7369Z" fill="#A4A4A4"/>
</g>
</svg>
