<svg width="30" height="30" viewBox="0 0 30 30" fill="none" xmlns="http://www.w3.org/2000/svg">
<g id="earth (2) 1">
<path id="Vector" d="M15 4C15.363 4 15.7621 4.18386 16.2147 4.67571C16.6704 5.166 17.1309 5.94857 17.5221 6.95271C17.8899 7.89086 18.1869 9.027 18.41 10.2857H11.59C11.8131 9.02857 12.1101 7.89086 12.4779 6.95271C12.8691 5.95014 13.3311 5.166 13.7853 4.67414C14.2379 4.18543 14.637 4 15 4ZM12.0143 4.418C11.6371 4.98371 11.304 5.63743 11.0133 6.38229C10.536 7.6444 10.1905 8.9525 9.98243 10.2857H5.06857C5.74055 8.86867 6.70807 7.61188 7.90609 6.59979C9.10411 5.58771 10.5049 4.84378 12.0143 4.418ZM17.9857 4.418C19.4951 4.84378 20.8959 5.58771 22.0939 6.59979C23.2919 7.61188 24.2594 8.86867 24.9314 10.2857H20.0176C19.8095 8.9525 19.464 7.6444 18.9867 6.38229C18.724 5.69371 18.3884 5.03521 17.9857 4.418ZM4.46043 11.8571H9.79386C9.6786 12.9009 9.61828 13.9499 9.61314 15C9.61314 16.0937 9.68857 17.1324 9.79386 18.1429H4.46043C4.15577 17.123 4.00068 16.0644 4 15C4 13.9063 4.165 12.8534 4.46043 11.8571ZM11.3779 11.8571H18.6221C18.7337 12.8597 18.8154 13.9 18.8154 15C18.8154 16.1 18.7337 17.1371 18.6221 18.1429H11.3779C11.2663 17.1371 11.1846 16.1 11.1846 15C11.1846 13.9 11.2663 12.8597 11.3779 11.8571ZM20.2046 11.8571H25.5396C25.835 12.8534 26 13.9063 26 15C26 16.0937 25.835 17.1466 25.5396 18.1429H20.2046C20.3114 17.1324 20.3869 16.0937 20.3869 15C20.3869 13.9063 20.3114 12.866 20.2046 11.8571ZM5.07171 19.7143H9.98243C10.2213 21.1694 10.5717 22.4926 11.0133 23.6209C11.3024 24.3641 11.6356 25.0147 12.0111 25.5789C10.5032 25.1526 9.10382 24.4088 7.90695 23.3973C6.71008 22.3858 5.74338 21.1301 5.07171 19.7143ZM11.5931 19.7143H18.4069C18.1853 20.9714 17.8883 22.1139 17.5221 23.0504C17.1309 24.0546 16.6689 24.8356 16.2147 25.329C15.7621 25.8193 15.363 26 15 26C14.637 26 14.2379 25.8193 13.7853 25.3274C13.3296 24.8356 12.8691 24.0546 12.4779 23.0504C12.1117 22.1139 11.8147 20.9714 11.5931 19.7143ZM20.0176 19.7143H24.9283C24.2566 21.1301 23.2899 22.3858 22.093 23.3973C20.8962 24.4088 19.4968 25.1526 17.9889 25.5789C18.3644 25.0131 18.696 24.3641 18.9867 23.6209C19.4267 22.4926 19.7787 21.1694 20.0176 19.7143Z" fill="#626B82"/>
</g>
</svg>
