<svg width="24" height="24" viewBox="0 0 24 24" fill="none" xmlns="http://www.w3.org/2000/svg">
<g id="exit 2">
<g id="Group 4345">
<path id="Vector" d="M5.25659 3H13.5066C14.1028 3.00178 14.674 3.23941 15.0956 3.66098C15.5172 4.08255 15.7548 4.65381 15.7566 5.25V9.75H9.00659C8.40985 9.75 7.83756 9.98705 7.4156 10.409C6.99364 10.831 6.75659 11.4033 6.75659 12C6.75659 12.5967 6.99364 13.169 7.4156 13.591C7.83756 14.0129 8.40985 14.25 9.00659 14.25H15.7566V18.75C15.7548 19.3462 15.5172 19.9175 15.0956 20.339C14.674 20.7606 14.1028 20.9982 13.5066 21H5.25659C4.6604 20.9982 4.08914 20.7606 3.66757 20.339C3.246 19.9175 3.00837 19.3462 3.00659 18.75V5.25C3.00837 4.65381 3.246 4.08255 3.66757 3.66098C4.08914 3.23941 4.6604 3.00178 5.25659 3Z" fill="#626B82"/>
<path id="Vector_2" d="M18.4491 12.7492H9.00662C8.8077 12.7492 8.61694 12.6701 8.47629 12.5295C8.33563 12.3888 8.25662 12.1981 8.25662 11.9992C8.25662 11.8003 8.33563 11.6095 8.47629 11.4688C8.61694 11.3282 8.8077 11.2492 9.00662 11.2492H18.4491L17.4741 10.2817C17.3329 10.1404 17.2535 9.94889 17.2535 9.74916C17.2535 9.54944 17.3329 9.35789 17.4741 9.21666C17.6153 9.07543 17.8069 8.99609 18.0066 8.99609C18.2063 8.99609 18.3979 9.07543 18.5391 9.21666L20.7891 11.4667C20.9246 11.6109 21 11.8013 21 11.9992C21 12.197 20.9246 12.3874 20.7891 12.5317L18.5391 14.7817C18.3955 14.9183 18.2049 14.9945 18.0066 14.9945C17.8084 14.9945 17.6177 14.9183 17.4741 14.7817C17.3336 14.6401 17.2548 14.4487 17.2548 14.2492C17.2548 14.0497 17.3336 13.8583 17.4741 13.7167L18.4491 12.7492Z" fill="#626B82"/>
</g>
</g>
</svg>
