<svg width="47" height="48" viewBox="0 0 47 48" fill="none" xmlns="http://www.w3.org/2000/svg">
<g id="google 2">
<rect width="47" height="48" rx="14" fill="white"/>
<path id="Vector" d="M12.3357 4.5H34.6644C39.417 4.5 43.2587 8.30185 43.2587 12.9782V35.0218C43.2587 39.6982 39.417 43.5 34.6644 43.5H12.3357C7.58317 43.5 3.74146 39.6982 3.74146 35.0218V12.9782C3.74146 8.30185 7.58317 4.5 12.3357 4.5Z" fill="white" stroke="#E7E7E7"/>
<g id="Group 4343">
<path id="Vector_2" d="M36.0944 24.2638C36.0944 23.2772 36.0125 22.5572 35.8352 21.8105H24.3083V26.2638H31.0743C30.938 27.3705 30.2014 29.0372 28.5644 30.1571L28.5414 30.3062L32.186 33.0658L32.4385 33.0905C34.7575 30.9971 36.0944 27.9171 36.0944 24.2638Z" fill="#4285F4"/>
<path id="Vector_3" d="M24.3086 35.9996C27.6234 35.9996 30.4062 34.9329 32.4388 33.093L28.5647 30.1596C27.5279 30.8663 26.1365 31.3596 24.3086 31.3596C21.062 31.3596 18.3065 29.2664 17.3243 26.373L17.1803 26.385L13.3906 29.2516L13.3411 29.3863C15.3599 33.3063 19.5069 35.9996 24.3086 35.9996Z" fill="#34A853"/>
<path id="Vector_4" d="M17.3242 26.375C17.0651 25.6284 16.9151 24.8283 16.9151 24.0017C16.9151 23.175 17.0651 22.375 17.3106 21.6284L17.3037 21.4693L13.4666 18.5566L13.341 18.615C12.5089 20.2417 12.0315 22.0684 12.0315 24.0017C12.0315 25.935 12.5089 27.7616 13.341 29.3883L17.3242 26.375Z" fill="#FBBC05"/>
<path id="Vector_5" d="M24.3086 16.6399C26.614 16.6399 28.169 17.6133 29.0557 18.4266L32.5206 15.12C30.3926 13.1867 27.6234 12 24.3086 12C19.5069 12 15.3599 14.6933 13.3411 18.6132L17.3106 21.6266C18.3065 18.7333 21.062 16.6399 24.3086 16.6399Z" fill="#EB4335"/>
</g>
</g>
</svg>
