<svg width="30" height="30" viewBox="0 0 30 30" fill="none" xmlns="http://www.w3.org/2000/svg">
<g id="home (2) 1" clip-path="url(#clip0_21_27)">
<g id="Clip path group">
<mask id="mask0_21_27" style="mask-type:luminance" maskUnits="userSpaceOnUse" x="0" y="0" width="30" height="30">
<g id="a">
<path id="Vector" d="M30 0H0V30H30V0Z" fill="white"/>
</g>
</mask>
<g mask="url(#mask0_21_27)">
<g id="Group">
<path id="Vector_2" d="M20.1774 28.7658H27.6638C28.4386 28.7658 29.0653 28.1367 29.0625 27.3619L29.0128 13.9092C29.0109 13.3927 28.6941 12.6966 28.3064 12.3558L16.0847 1.61721C15.5025 1.1058 14.5561 1.10393 13.9716 1.61299L1.6397 12.3586C1.25016 12.698 0.935633 13.3927 0.937508 13.9092L0.987196 27.3619C0.990008 28.1367 1.62141 28.7658 2.39626 28.7658H9.88313C10.658 28.7658 11.2866 28.1367 11.2866 27.3619V21.2789C11.2866 20.7624 11.7061 20.3433 12.2227 20.3433H17.8378C18.3539 20.3433 18.7734 20.7624 18.7734 21.2789V27.3619C18.7734 28.1367 19.4025 28.7658 20.1774 28.7658Z" fill="#626B82"/>
</g>
</g>
</g>
</g>
<defs>
<clipPath id="clip0_21_27">
<rect width="30" height="30" fill="white"/>
</clipPath>
</defs>
</svg>
