<svg width="24" height="24" viewBox="0 0 24 24" fill="none" xmlns="http://www.w3.org/2000/svg">
<g id="search (2) 1">
<g id="Group 4370">
<path id="Vector" d="M9.90712 17.8151C5.54714 17.8151 2 14.2678 2 9.90757C2 5.54734 5.54714 2 9.90712 2C14.2671 2 17.8142 5.54734 17.8142 9.90757C17.8142 14.2678 14.2671 17.8151 9.90712 17.8151ZM9.90712 3.58151C6.41929 3.58151 3.58142 6.41954 3.58142 9.90757C3.58142 13.3956 6.41929 16.2336 9.90712 16.2336C13.395 16.2336 16.2328 13.3956 16.2328 9.90757C16.2328 6.41954 13.3957 3.58151 9.90712 3.58151Z" fill="#A4A4A4"/>
<path id="Vector_2" d="M21.2083 21.9995C21.1045 21.9996 21.0016 21.9792 20.9057 21.9394C20.8098 21.8996 20.7226 21.8413 20.6493 21.7678L14.5655 15.6837C14.4921 15.6103 14.4339 15.5231 14.3942 15.4272C14.3544 15.3313 14.334 15.2285 14.334 15.1246C14.334 15.0208 14.3544 14.918 14.3942 14.8221C14.4339 14.7261 14.4921 14.639 14.5655 14.5656C14.639 14.4921 14.7261 14.4339 14.822 14.3942C14.9179 14.3544 15.0208 14.334 15.1246 14.334C15.2284 14.334 15.3312 14.3544 15.4271 14.3942C15.523 14.4339 15.6102 14.4921 15.6836 14.5656L21.7674 20.6496C21.8783 20.7601 21.9539 20.901 21.9846 21.0545C22.0153 21.208 21.9998 21.3672 21.9399 21.5118C21.88 21.6564 21.7785 21.78 21.6482 21.8668C21.518 21.9536 21.3649 21.9998 21.2083 21.9995Z" fill="#A4A4A4"/>
</g>
</g>
</svg>
