<svg width="24" height="24" viewBox="0 0 24 24" fill="none" xmlns="http://www.w3.org/2000/svg">
<g id="settings (1) 1">
<path id="Vector" d="M3.4008 9.23053C3.79338 8.02162 4.44008 6.91192 5.29338 5.97148C5.43767 5.81245 5.66405 5.75576 5.86673 5.82793L7.90595 6.55393C8.4588 6.75065 9.06714 6.46387 9.26471 5.91338C9.28413 5.85925 9.2991 5.80364 9.30944 5.74718L9.69794 3.62389C9.73656 3.41278 9.8994 3.24578 10.1102 3.2011C10.727 3.07039 11.3593 3.00391 12 3.00391C12.6403 3.00391 13.2723 3.07031 13.8887 3.20086C14.0994 3.2455 14.2622 3.41239 14.301 3.62342L14.6906 5.74709C14.7959 6.32218 15.3494 6.70336 15.9271 6.59849C15.9839 6.58817 16.0397 6.57328 16.094 6.55396L18.1333 5.82793C18.3359 5.75576 18.5623 5.81245 18.7066 5.97148C19.5599 6.91192 20.2066 8.02162 20.5993 9.23053C20.6654 9.43447 20.6015 9.65806 20.4374 9.79678L18.7846 11.1941C18.3371 11.5724 18.2824 12.2404 18.6623 12.686C18.6997 12.7298 18.7406 12.7705 18.7846 12.8077L20.4374 14.205C20.6015 14.3437 20.6654 14.5673 20.5993 14.7713C20.2066 15.9802 19.5599 17.0899 18.7066 18.0303C18.5623 18.1893 18.3359 18.246 18.1333 18.1738L16.094 17.4478C15.5413 17.2512 14.9329 17.538 14.7353 18.0883C14.7159 18.1425 14.7009 18.1981 14.6905 18.2548L14.301 20.3784C14.2622 20.5894 14.0994 20.7562 13.8887 20.8009C13.2723 20.9314 12.6403 20.9979 12 20.9979C11.3593 20.9979 10.727 20.9314 10.1102 20.8006C9.8994 20.7559 9.73656 20.589 9.69794 20.3779L9.30945 18.2547C9.20412 17.6796 8.65053 17.2984 8.07296 17.4033C8.01615 17.4136 7.96031 17.4285 7.90604 17.4478L5.86673 18.1738C5.66405 18.246 5.43767 18.1893 5.29338 18.0303C4.44008 17.0899 3.79338 15.9802 3.4008 14.7713C3.33458 14.5673 3.39843 14.3437 3.56255 14.205L5.2154 12.8077C5.66292 12.4294 5.71766 11.7614 5.33766 11.3158C5.3003 11.272 5.25941 11.2313 5.21541 11.1941L3.56255 9.79678C3.39843 9.65806 3.33458 9.43447 3.4008 9.23053ZM9.37482 12.0008C9.37482 13.4506 10.5501 14.6258 11.9998 14.6258C13.4496 14.6258 14.6248 13.4506 14.6248 12.0008C14.6248 10.5511 13.4496 9.3758 11.9998 9.3758C10.5501 9.3758 9.37482 10.5511 9.37482 12.0008Z" fill="#626B82"/>
</g>
</svg>
