<svg width="28" height="26" viewBox="0 0 28 26" fill="none" xmlns="http://www.w3.org/2000/svg">
<path fill-rule="evenodd" clip-rule="evenodd" d="M3.04337 1.52545H24.9564C25.4403 1.52723 25.9039 1.7695 26.2461 2.19935C26.5882 2.62919 26.7811 3.21168 26.7825 3.81957V16.8196C26.7811 17.4275 26.5882 18.0099 26.2461 18.4398C25.9039 18.8696 25.4403 19.1119 24.9564 19.1137H3.04337C2.5595 19.1119 2.09585 18.8696 1.7537 18.4398C1.41155 18.0099 1.2187 17.4275 1.21729 16.8196V3.81957C1.2187 3.21168 1.41155 2.62919 1.7537 2.19935C2.09585 1.7695 2.5595 1.52723 3.04337 1.52545Z" fill="white"/>
<path fill-rule="evenodd" clip-rule="evenodd" d="M2.43478 0H25.5652C26.2104 0.00237248 26.8286 0.325402 27.2848 0.89853C27.741 1.47166 27.9981 2.2483 28 3.05882V22.9412C27.9981 23.7517 27.741 24.5283 27.2848 25.1015C26.8286 25.6746 26.2104 25.9976 25.5652 26H2.43478C1.78962 25.9976 1.17142 25.6746 0.715217 25.1015C0.259016 24.5283 0.00188847 23.7517 0 22.9412V3.05882C0.00188847 2.2483 0.259016 1.47166 0.715217 0.89853C1.17142 0.325402 1.78962 0.00237248 2.43478 0Z" fill="#626B82"/>
<path fill-rule="evenodd" clip-rule="evenodd" d="M3.04337 1.52545H24.9564C25.4403 1.52723 25.9039 1.7695 26.2461 2.19935C26.5882 2.62919 26.7811 3.21168 26.7825 3.81957V16.8196C26.7811 17.4275 26.5882 18.0099 26.2461 18.4398C25.9039 18.8696 25.4403 19.1119 24.9564 19.1137H3.04337C2.5595 19.1119 2.09585 18.8696 1.7537 18.4398C1.41155 18.0099 1.2187 17.4275 1.21729 16.8196V3.81957C1.2187 3.21168 1.41155 2.62919 1.7537 2.19935C2.09585 1.7695 2.5595 1.52723 3.04337 1.52545Z" fill="white"/>
<path fill-rule="evenodd" clip-rule="evenodd" d="M3.04337 4.20703H24.9564C25.4403 4.20881 25.9039 4.45108 26.2461 4.88093C26.5882 5.31077 26.7811 5.89326 26.7825 6.50115V11.0894C26.7811 11.6973 26.5882 12.2798 26.2461 12.7096C25.9039 13.1395 25.4403 13.3817 24.9564 13.3835H3.04337C2.5595 13.3817 2.09585 13.1395 1.7537 12.7096C1.41155 12.2798 1.2187 11.6973 1.21729 11.0894V6.50115C1.2187 5.89326 1.41155 5.31077 1.7537 4.88093C2.09585 4.45108 2.5595 4.20881 3.04337 4.20703Z" fill="black"/>
<path fill-rule="evenodd" clip-rule="evenodd" d="M3.04337 4.20703H24.9564C25.4403 4.20881 25.9039 4.45108 26.2461 4.88093C26.5882 5.31077 26.7811 5.89326 26.7825 6.50115V11.0894C26.7811 11.6973 26.5882 12.2798 26.2461 12.7096C25.9039 13.1395 25.4403 13.3817 24.9564 13.3835H3.04337C2.5595 13.3817 2.09585 13.1395 1.7537 12.7096C1.41155 12.2798 1.2187 11.6973 1.21729 11.0894V6.50115C1.2187 5.89326 1.41155 5.31077 1.7537 4.88093C2.09585 4.45108 2.5595 4.20881 3.04337 4.20703Z" fill="#D3D3D3"/>
<path fill-rule="evenodd" clip-rule="evenodd" d="M3.04337 6.8808H24.9564C25.4403 6.88258 25.9039 7.12485 26.2461 7.5547C26.5882 7.98454 26.7811 8.56703 26.7825 9.17492V13.7632C26.7811 14.371 26.5882 14.9535 26.2461 15.3834C25.9039 15.8132 25.4403 16.0555 24.9564 16.0573H3.04337C2.5595 16.0555 2.09585 15.8132 1.7537 15.3834C1.41155 14.9535 1.2187 14.371 1.21729 13.7632V9.17492C1.2187 8.56703 1.41155 7.98454 1.7537 7.5547C2.09585 7.12485 2.5595 6.88258 3.04337 6.8808Z" fill="black"/>
<path fill-rule="evenodd" clip-rule="evenodd" d="M3.04337 6.8808H24.9564C25.4403 6.88258 25.9039 7.12485 26.2461 7.5547C26.5882 7.98454 26.7811 8.56703 26.7825 9.17492V13.7632C26.7811 14.371 26.5882 14.9535 26.2461 15.3834C25.9039 15.8132 25.4403 16.0555 24.9564 16.0573H3.04337C2.5595 16.0555 2.09585 15.8132 1.7537 15.3834C1.41155 14.9535 1.2187 14.371 1.21729 13.7632V9.17492C1.2187 8.56703 1.41155 7.98454 1.7537 7.5547C2.09585 7.12485 2.5595 6.88258 3.04337 6.8808Z" fill="#E7E7E7"/>
<path fill-rule="evenodd" clip-rule="evenodd" d="M3.04337 9.55469H24.9564C25.4403 9.55647 25.9039 9.79874 26.2461 10.2286C26.5882 10.6584 26.7811 11.2409 26.7825 11.8488V16.437C26.7811 17.0449 26.5882 17.6274 26.2461 18.0573C25.9039 18.4871 25.4403 18.7294 24.9564 18.7312H3.04337C2.5595 18.7294 2.09585 18.4871 1.7537 18.0573C1.41155 17.6274 1.2187 17.0449 1.21729 16.437V11.8488C1.2187 11.2409 1.41155 10.6584 1.7537 10.2286C2.09585 9.79874 2.5595 9.55647 3.04337 9.55469Z" fill="black"/>
<path fill-rule="evenodd" clip-rule="evenodd" d="M3.04337 9.55469H24.9564C25.4403 9.55647 25.9039 9.79874 26.2461 10.2286C26.5882 10.6584 26.7811 11.2409 26.7825 11.8488V16.437C26.7811 17.0449 26.5882 17.6274 26.2461 18.0573C25.9039 18.4871 25.4403 18.7294 24.9564 18.7312H3.04337C2.5595 18.7294 2.09585 18.4871 1.7537 18.0573C1.41155 17.6274 1.2187 17.0449 1.21729 16.437V11.8488C1.2187 11.2409 1.41155 10.6584 1.7537 10.2286C2.09585 9.79874 2.5595 9.55647 3.04337 9.55469Z" fill="#B8B8B8"/>
<path fill-rule="evenodd" clip-rule="evenodd" d="M0 12.2342H28V22.9401C27.9981 23.7506 27.741 24.5272 27.2848 25.1004C26.8286 25.6735 26.2104 25.9965 25.5652 25.9989H2.43478C1.78962 25.9965 1.17142 25.6735 0.715217 25.1004C0.259016 24.5272 0.00188847 23.7506 0 22.9401V12.2342ZM8.21739 12.2342C10.9565 12.2342 11.2609 16.6312 14 16.6312C16.7391 16.6312 17.0435 12.2342 19.7826 12.2342H8.21739Z" fill="black"/>
<path fill-rule="evenodd" clip-rule="evenodd" d="M0 12.2342H28V22.9401C27.9981 23.7506 27.741 24.5272 27.2848 25.1004C26.8286 25.6735 26.2104 25.9965 25.5652 25.9989H2.43478C1.78962 25.9965 1.17142 25.6735 0.715217 25.1004C0.259016 24.5272 0.00188847 23.7506 0 22.9401V12.2342ZM8.21739 12.2342C10.9565 12.2342 11.2609 16.6312 14 16.6312C16.7391 16.6312 17.0435 12.2342 19.7826 12.2342H8.21739Z" fill="#626B82"/>
</svg>
