<svg width="140" height="52" viewBox="0 0 140 52" fill="none" xmlns="http://www.w3.org/2000/svg">
<path d="M94.642 29L92.2557 20.2727H93.3295L95.1534 27.3807H95.2386L97.0966 20.2727H98.2898L100.148 27.3807H100.233L102.057 20.2727H103.131L100.744 29H99.6534L97.7273 22.0455H97.6591L95.733 29H94.642ZM105.628 29.1534C105.213 29.1534 104.837 29.0753 104.499 28.919C104.161 28.7599 103.892 28.5312 103.693 28.233C103.494 27.9318 103.395 27.5682 103.395 27.142C103.395 26.767 103.469 26.4631 103.616 26.2301C103.764 25.9943 103.962 25.8097 104.209 25.6761C104.456 25.5426 104.729 25.4432 105.027 25.3778C105.328 25.3097 105.631 25.2557 105.935 25.2159C106.332 25.1648 106.655 25.1264 106.902 25.1009C107.152 25.0724 107.334 25.0256 107.447 24.9602C107.564 24.8949 107.622 24.7812 107.622 24.6193V24.5852C107.622 24.1648 107.507 23.8381 107.277 23.6051C107.05 23.3722 106.705 23.2557 106.241 23.2557C105.761 23.2557 105.385 23.3608 105.112 23.571C104.839 23.7812 104.648 24.0057 104.537 24.2443L103.582 23.9034C103.753 23.5057 103.98 23.196 104.264 22.9744C104.551 22.75 104.864 22.5937 105.202 22.5057C105.543 22.4148 105.878 22.3693 106.207 22.3693C106.418 22.3693 106.659 22.3949 106.932 22.446C107.207 22.4943 107.473 22.5952 107.729 22.7486C107.987 22.902 108.202 23.1335 108.372 23.4432C108.543 23.7528 108.628 24.1676 108.628 24.6875V29H107.622V28.1136H107.571C107.503 28.2557 107.389 28.4077 107.23 28.5696C107.071 28.7315 106.859 28.8693 106.595 28.983C106.331 29.0966 106.009 29.1534 105.628 29.1534ZM105.781 28.25C106.179 28.25 106.514 28.1719 106.787 28.0156C107.063 27.8594 107.27 27.6577 107.409 27.4105C107.551 27.1634 107.622 26.9034 107.622 26.6307V25.7102C107.58 25.7614 107.486 25.8082 107.341 25.8509C107.199 25.8906 107.034 25.9261 106.847 25.9574C106.662 25.9858 106.482 26.0114 106.305 26.0341C106.132 26.054 105.991 26.071 105.884 26.0852C105.622 26.1193 105.378 26.1747 105.151 26.2514C104.926 26.3253 104.744 26.4375 104.605 26.5881C104.469 26.7358 104.401 26.9375 104.401 27.1932C104.401 27.5426 104.53 27.8068 104.788 27.9858C105.05 28.1619 105.381 28.25 105.781 28.25ZM111.469 20.2727V29H110.463V20.2727H111.469ZM114.317 20.2727V29H113.311V20.2727H114.317ZM118.903 29.1364C118.272 29.1364 117.728 28.9972 117.271 28.7188C116.816 28.4375 116.466 28.0455 116.218 27.5426C115.974 27.0369 115.852 26.4489 115.852 25.7784C115.852 25.108 115.974 24.517 116.218 24.0057C116.466 23.4915 116.809 23.0909 117.25 22.804C117.693 22.5142 118.21 22.3693 118.801 22.3693C119.142 22.3693 119.478 22.4261 119.811 22.5398C120.143 22.6534 120.446 22.8381 120.718 23.0938C120.991 23.3466 121.208 23.6818 121.37 24.0994C121.532 24.517 121.613 25.0312 121.613 25.642V26.0682H116.568V25.1989H120.591C120.591 24.8295 120.517 24.5 120.369 24.2102C120.224 23.9205 120.017 23.6918 119.747 23.5241C119.48 23.3565 119.164 23.2727 118.801 23.2727C118.4 23.2727 118.054 23.3722 117.761 23.571C117.471 23.767 117.248 24.0227 117.092 24.3381C116.936 24.6534 116.858 24.9915 116.858 25.3523V25.9318C116.858 26.4261 116.943 26.8452 117.113 27.1889C117.287 27.5298 117.527 27.7898 117.833 27.9688C118.14 28.1449 118.497 28.233 118.903 28.233C119.167 28.233 119.406 28.196 119.619 28.1222C119.835 28.0455 120.021 27.9318 120.177 27.7812C120.333 27.6278 120.454 27.4375 120.539 27.2102L121.511 27.483C121.409 27.8125 121.237 28.1023 120.995 28.3523C120.754 28.5994 120.456 28.7926 120.1 28.9318C119.745 29.0682 119.346 29.1364 118.903 29.1364ZM125.99 22.4545V23.3068H122.598V22.4545H125.99ZM123.586 20.8864H124.592V27.125C124.592 27.4091 124.633 27.6222 124.716 27.7642C124.801 27.9034 124.909 27.9972 125.039 28.0455C125.173 28.0909 125.314 28.1136 125.461 28.1136C125.572 28.1136 125.663 28.108 125.734 28.0966C125.805 28.0824 125.862 28.071 125.904 28.0625L126.109 28.9659C126.041 28.9915 125.946 29.017 125.824 29.0426C125.701 29.071 125.547 29.0852 125.359 29.0852C125.075 29.0852 124.797 29.0241 124.524 28.902C124.254 28.7798 124.029 28.5938 123.85 28.3438C123.674 28.0938 123.586 27.7784 123.586 27.3977V20.8864ZM93.0568 40V31.2727H96.0057C96.6903 31.2727 97.25 31.3963 97.6847 31.6435C98.1222 31.8878 98.446 32.2188 98.6562 32.6364C98.8665 33.054 98.9716 33.5199 98.9716 34.0341C98.9716 34.5483 98.8665 35.0156 98.6562 35.4361C98.4489 35.8565 98.1278 36.1918 97.6932 36.4418C97.2585 36.6889 96.7017 36.8125 96.0227 36.8125H93.9091V35.875H95.9886C96.4574 35.875 96.8338 35.794 97.1179 35.6321C97.402 35.4702 97.608 35.2514 97.7358 34.9759C97.8665 34.6974 97.9318 34.3835 97.9318 34.0341C97.9318 33.6847 97.8665 33.3722 97.7358 33.0966C97.608 32.821 97.4006 32.6051 97.1136 32.4489C96.8267 32.2898 96.446 32.2102 95.9716 32.2102H94.1136V40H93.0568ZM100.538 40V33.4545H101.509V34.4432H101.577C101.697 34.1193 101.913 33.8565 102.225 33.6548C102.538 33.4531 102.89 33.3523 103.282 33.3523C103.356 33.3523 103.448 33.3537 103.559 33.3565C103.67 33.3594 103.754 33.3636 103.81 33.3693V34.392C103.776 34.3835 103.698 34.3707 103.576 34.3537C103.457 34.3338 103.33 34.3239 103.197 34.3239C102.879 34.3239 102.594 34.3906 102.344 34.5241C102.097 34.6548 101.901 34.8366 101.756 35.0696C101.614 35.2997 101.543 35.5625 101.543 35.858V40H100.538ZM107.462 40.1364C106.871 40.1364 106.353 39.9957 105.907 39.7145C105.464 39.4332 105.117 39.0398 104.867 38.5341C104.62 38.0284 104.496 37.4375 104.496 36.7614C104.496 36.0795 104.62 35.4844 104.867 34.9759C105.117 34.4673 105.464 34.0724 105.907 33.7912C106.353 33.5099 106.871 33.3693 107.462 33.3693C108.053 33.3693 108.57 33.5099 109.013 33.7912C109.46 34.0724 109.806 34.4673 110.053 34.9759C110.303 35.4844 110.428 36.0795 110.428 36.7614C110.428 37.4375 110.303 38.0284 110.053 38.5341C109.806 39.0398 109.46 39.4332 109.013 39.7145C108.57 39.9957 108.053 40.1364 107.462 40.1364ZM107.462 39.233C107.911 39.233 108.281 39.1179 108.57 38.8878C108.86 38.6577 109.075 38.3551 109.214 37.9801C109.353 37.6051 109.423 37.1989 109.423 36.7614C109.423 36.3239 109.353 35.9162 109.214 35.5384C109.075 35.1605 108.86 34.8551 108.57 34.6222C108.281 34.3892 107.911 34.2727 107.462 34.2727C107.013 34.2727 106.644 34.3892 106.354 34.6222C106.065 34.8551 105.85 35.1605 105.711 35.5384C105.572 35.9162 105.502 36.3239 105.502 36.7614C105.502 37.1989 105.572 37.6051 105.711 37.9801C105.85 38.3551 106.065 38.6577 106.354 38.8878C106.644 39.1179 107.013 39.233 107.462 39.233ZM111.963 33.4545H112.969V40.4773C112.969 40.8807 112.9 41.2301 112.76 41.5256C112.624 41.821 112.417 42.0497 112.138 42.2116C111.863 42.3736 111.515 42.4545 111.094 42.4545C111.06 42.4545 111.026 42.4545 110.992 42.4545C110.958 42.4545 110.924 42.4545 110.89 42.4545V41.517C110.924 41.517 110.955 41.517 110.983 41.517C111.012 41.517 111.043 41.517 111.077 41.517C111.384 41.517 111.608 41.4261 111.75 41.2443C111.892 41.0653 111.963 40.8097 111.963 40.4773V33.4545ZM112.458 32.3636C112.262 32.3636 112.093 32.2969 111.951 32.1634C111.811 32.0298 111.742 31.8693 111.742 31.6818C111.742 31.4943 111.811 31.3338 111.951 31.2003C112.093 31.0668 112.262 31 112.458 31C112.654 31 112.821 31.0668 112.961 31.2003C113.103 31.3338 113.174 31.4943 113.174 31.6818C113.174 31.8693 113.103 32.0298 112.961 32.1634C112.821 32.2969 112.654 32.3636 112.458 32.3636ZM117.555 40.1364C116.925 40.1364 116.381 39.9972 115.923 39.7188C115.469 39.4375 115.118 39.0455 114.871 38.5426C114.626 38.0369 114.504 37.4489 114.504 36.7784C114.504 36.108 114.626 35.517 114.871 35.0057C115.118 34.4915 115.462 34.0909 115.902 33.804C116.345 33.5142 116.862 33.3693 117.453 33.3693C117.794 33.3693 118.131 33.4261 118.463 33.5398C118.795 33.6534 119.098 33.8381 119.371 34.0938C119.643 34.3466 119.861 34.6818 120.023 35.0994C120.185 35.517 120.266 36.0312 120.266 36.642V37.0682H115.22V36.1989H119.243C119.243 35.8295 119.169 35.5 119.021 35.2102C118.876 34.9205 118.669 34.6918 118.399 34.5241C118.132 34.3565 117.817 34.2727 117.453 34.2727C117.053 34.2727 116.706 34.3722 116.413 34.571C116.124 34.767 115.901 35.0227 115.744 35.3381C115.588 35.6534 115.51 35.9915 115.51 36.3523V36.9318C115.51 37.4261 115.595 37.8452 115.766 38.1889C115.939 38.5298 116.179 38.7898 116.486 38.9688C116.793 39.1449 117.149 39.233 117.555 39.233C117.82 39.233 118.058 39.196 118.271 39.1222C118.487 39.0455 118.673 38.9318 118.83 38.7812C118.986 38.6278 119.107 38.4375 119.192 38.2102L120.163 38.483C120.061 38.8125 119.889 39.1023 119.648 39.3523C119.406 39.5994 119.108 39.7926 118.753 39.9318C118.398 40.0682 117.999 40.1364 117.555 40.1364ZM124.455 40.1364C123.841 40.1364 123.313 39.9915 122.869 39.7017C122.426 39.4119 122.085 39.0128 121.847 38.5043C121.608 37.9957 121.489 37.4148 121.489 36.7614C121.489 36.0966 121.611 35.5099 121.855 35.0014C122.102 34.4901 122.446 34.0909 122.886 33.804C123.33 33.5142 123.847 33.3693 124.438 33.3693C124.898 33.3693 125.312 33.4545 125.682 33.625C126.051 33.7955 126.354 34.0341 126.589 34.3409C126.825 34.6477 126.972 35.0057 127.028 35.4148H126.023C125.946 35.1165 125.776 34.8523 125.511 34.6222C125.25 34.3892 124.898 34.2727 124.455 34.2727C124.063 34.2727 123.719 34.375 123.423 34.5795C123.131 34.7812 122.902 35.0668 122.737 35.4361C122.575 35.8026 122.494 36.233 122.494 36.7273C122.494 37.233 122.574 37.6733 122.733 38.0483C122.895 38.4233 123.122 38.7145 123.415 38.9219C123.71 39.1293 124.057 39.233 124.455 39.233C124.716 39.233 124.953 39.1875 125.166 39.0966C125.379 39.0057 125.56 38.875 125.707 38.7045C125.855 38.5341 125.96 38.3295 126.023 38.0909H127.028C126.972 38.4773 126.831 38.8253 126.607 39.1349C126.385 39.4418 126.091 39.6861 125.724 39.8679C125.361 40.0469 124.938 40.1364 124.455 40.1364ZM131.345 33.4545V34.3068H127.953V33.4545H131.345ZM128.942 31.8864H129.947V38.125C129.947 38.4091 129.989 38.6222 130.071 38.7642C130.156 38.9034 130.264 38.9972 130.395 39.0455C130.528 39.0909 130.669 39.1136 130.817 39.1136C130.928 39.1136 131.018 39.108 131.089 39.0966C131.161 39.0824 131.217 39.071 131.26 39.0625L131.464 39.9659C131.396 39.9915 131.301 40.017 131.179 40.0426C131.057 40.071 130.902 40.0852 130.714 40.0852C130.43 40.0852 130.152 40.0241 129.879 39.902C129.609 39.7798 129.385 39.5938 129.206 39.3438C129.03 39.0938 128.942 38.7784 128.942 38.3977V31.8864Z" fill="#292929"/>
<path d="M28.9915 41L20.7812 11.9091H26.4489L31.6903 33.2869H31.9602L37.5568 11.9091H42.7131L48.3239 33.3011H48.5795L53.821 11.9091H59.4886L51.2784 41H46.0795L40.2557 20.5881H40.0284L34.1903 41H28.9915Z" fill="#FF671B"/>
<path d="M63.9428 41V11.9091H74.8518C77.0867 11.9091 78.9617 12.3258 80.4768 13.1591C82.0015 13.9924 83.152 15.1383 83.9286 16.5966C84.7145 18.0455 85.1075 19.6932 85.1075 21.5398C85.1075 23.4053 84.7145 25.0625 83.9286 26.5114C83.1426 27.9602 81.9825 29.1013 80.4484 29.9347C78.9143 30.7585 77.0251 31.1705 74.7808 31.1705H67.5507V26.8381H74.0706C75.3774 26.8381 76.4475 26.6108 77.2808 26.1562C78.1142 25.7017 78.7297 25.0767 79.1274 24.2812C79.5346 23.4858 79.7382 22.572 79.7382 21.5398C79.7382 20.5076 79.5346 19.5985 79.1274 18.8125C78.7297 18.0265 78.1094 17.4157 77.2666 16.9801C76.4333 16.535 75.3585 16.3125 74.0422 16.3125H69.2126V41H63.9428Z" fill="#292929"/>
</svg>
